<?xml version="1.0" encoding="UTF-8" standalone="no"?>
<!-- Uploaded to: SVG Repo, www.svgrepo.com, Generator: SVG Repo Mixer Tools -->

<svg
   width="800.08112"
   height="489.77866"
   viewBox="0 -28.56 147.26493 90.149884"
   version="1.1"
   id="svg2"
   sodipodi:docname="arrow.svg"
   inkscape:version="1.3.2 (091e20ef0f, 2023-11-25, custom)"
   xmlns:inkscape="http://www.inkscape.org/namespaces/inkscape"
   xmlns:sodipodi="http://sodipodi.sourceforge.net/DTD/sodipodi-0.dtd"
   xmlns="http://www.w3.org/2000/svg"
   xmlns:svg="http://www.w3.org/2000/svg">
  <sodipodi:namedview
     id="namedview2"
     pagecolor="#ffffff"
     bordercolor="#000000"
     borderopacity="0.25"
     inkscape:showpageshadow="2"
     inkscape:pageopacity="0.0"
     inkscape:pagecheckerboard="true"
     inkscape:deskcolor="#d1d1d1"
     inkscape:zoom="0.55774776"
     inkscape:cx="-69.924082"
     inkscape:cy="295.83266"
     inkscape:window-width="1920"
     inkscape:window-height="1128"
     inkscape:window-x="0"
     inkscape:window-y="0"
     inkscape:window-maximized="1"
     inkscape:current-layer="svg2" />
  <defs
     id="defs1">
    <style
       id="style1">.cls-1{fill:#ffffff;}</style>
  </defs>
  <g
     id="Layer_2"
     data-name="Layer 2"
     transform="matrix(-1,0,0,1,147.252,-28.563497)">
    <g
       id="Layer_1-2"
       data-name="Layer 1">
      <path
         d="M 79.34,22.4 A 35.81,35.81 0 0 0 89.89,21 c 14.44,-3.8 29.16,-5.94 43.94,-7.75 6.81,-0.83 10.07,1.75 11.64,8.3 2.16,9 2.07,18.11 1.23,27.28 -0.37,4 -2.36,6.44 -6.08,7.28 -4.45,1 -9,1.7 -13.48,2.45 -12.12,2 -24.25,4 -36.37,6 a 12.33,12.33 0 0 0 -2.46,1 c -3.4,7 1.11,14.83 -1.93,21.79 -4.06,3.45 -8.33,3.51 -12.87,1.3 -3.09,-1.5 -6.32,-2.7 -9.37,-4.27 A 441.69,441.69 0 0 0 14.7,62.48 117.42,117.42 0 0 1 2.28,56.71 a 4,4 0 0 1 -2,-5.12 c 0.94,-3 1.9,-6 4.8,-7.88 2.38,-1.57 4.46,-3.57 6.74,-5.28 9.39,-7.06 18.66,-14.26 28.23,-21 C 47.72,11.93 55.77,7 63.69,1.83 A 13.93,13.93 0 0 1 66.84,0.5 c 3.72,-1.25 6.91,-0.16 8.57,3.5 a 37.9,37.9 0 0 1 2.34,8.19 c 0.68,3.26 1.05,6.62 1.59,10.21 z M 67.2,12.82 a 18.83,18.83 0 0 0 -9,3.8 C 52.7,20.71 47.11,24.69 41.57,28.74 33.06,35 24.51,41.2 16,47.53 14.74,48.47 13.87,49.94 12.56,51.46 23.8,55.89 34.45,60 45,64.32 55.55,68.64 65.09,74.94 76.55,78.93 a 34.36,34.36 0 0 0 0.8,-5.41 c -0.08,-2.85 -0.61,-5.69 -0.73,-8.55 -0.2,-5.19 0.91,-6.85 5.8,-7.83 Q 103,53 123.7,49.23 c 4.17,-0.78 8.41,-1.21 12.43,-3.24 1,-7.62 -0.69,-14.79 -2.17,-22 a 13.24,13.24 0 0 0 -2.85,-0.25 C 115,26.44 98.94,29.1 82.9,32.05 a 11.62,11.62 0 0 1 -9.63,-2 A 12,12 0 0 1 68,20.69 c -0.22,-2.48 -0.51,-4.96 -0.8,-7.87 z"
         id="path1" />
      <path
         class="cls-1"
         d="m 67.2,12.82 c 0.29,2.91 0.58,5.39 0.77,7.87 a 12,12 0 0 0 5.3,9.31 11.62,11.62 0 0 0 9.63,2 c 16,-2.95 32.13,-5.61 48.21,-8.34 A 13.24,13.24 0 0 1 134,24 c 1.48,7.24 3.16,14.41 2.17,22 -4,2 -8.26,2.46 -12.43,3.24 Q 103,53.07 82.42,57.14 c -4.89,1 -6,2.64 -5.8,7.83 0.12,2.86 0.65,5.7 0.73,8.55 a 34.36,34.36 0 0 1 -0.8,5.41 C 65.09,74.93 55.55,68.59 45.03,64.32 34.51,60.05 23.8,55.89 12.59,51.46 c 1.31,-1.52 2.18,-3 3.44,-3.93 C 24.51,41.2 33.06,35 41.6,28.74 c 5.54,-4 11.13,-8 16.63,-12.12 a 18.83,18.83 0 0 1 8.97,-3.8 z"
         id="path2" />
    </g>
  </g>
</svg>
