<?xml version="1.0" encoding="UTF-8" standalone="no"?>
<svg
   width="738.19684"
   height="392.44608"
   version="1.1"
   id="svg265"
   sodipodi:docname="qr-preprint.svg"
   xml:space="preserve"
   inkscape:version="1.3.2 (091e20ef0f, 2023-11-25, custom)"
   xmlns:inkscape="http://www.inkscape.org/namespaces/inkscape"
   xmlns:sodipodi="http://sodipodi.sourceforge.net/DTD/sodipodi-0.dtd"
   xmlns="http://www.w3.org/2000/svg"
   xmlns:svg="http://www.w3.org/2000/svg"><sodipodi:namedview
     id="namedview265"
     pagecolor="#ffffff"
     bordercolor="#000000"
     borderopacity="0.25"
     inkscape:showpageshadow="2"
     inkscape:pageopacity="0.0"
     inkscape:pagecheckerboard="0"
     inkscape:deskcolor="#d1d1d1"
     inkscape:zoom="6.2533333"
     inkscape:cx="461.35395"
     inkscape:cy="270.41578"
     inkscape:window-width="3840"
     inkscape:window-height="2055"
     inkscape:window-x="0"
     inkscape:window-y="0"
     inkscape:window-maximized="1"
     inkscape:current-layer="svg265" /><defs
     id="defs263"><marker
       style="overflow:visible"
       id="Triangle"
       refX="0"
       refY="0"
       orient="auto-start-reverse"
       inkscape:stockid="Triangle arrow"
       markerWidth="1"
       markerHeight="1"
       viewBox="0 0 1 1"
       inkscape:isstock="true"
       inkscape:collect="always"
       preserveAspectRatio="xMidYMid"><path
         transform="scale(0.5)"
         style="fill:context-stroke;fill-rule:evenodd;stroke:context-stroke;stroke-width:1pt"
         d="M 5.77,0 -2.88,5 V -5 Z"
         id="path19" /></marker><clipPath
       id="clip-path-dot-color"><path
         d="m 5,115 v 10 h 5 a 5,5 0 0 0 0,-10"
         transform="rotate(-90,10,120)"
         id="path1" /><rect
         x="5"
         y="125"
         width="10"
         height="10"
         id="rect1" /><rect
         x="5"
         y="135"
         width="10"
         height="10"
         id="rect2" /><path
         d="m 5,145 v 10 h 10 v -5 a 5,5 0 0 0 -5,-5"
         transform="rotate(180,10,150)"
         id="path2" /><path
         d="m 5,165 v 10 h 5 a 5,5 0 0 0 0,-10"
         transform="rotate(-90,10,170)"
         id="path3" /><path
         d="m 5,175 v 10 h 5 a 5,5 0 0 0 0,-10"
         transform="rotate(90,10,180)"
         id="path4" /><path
         d="m 5,205 v 10 h 5 a 5,5 0 0 0 0,-10"
         transform="rotate(180,10,210)"
         id="path5" /><circle
         cx="20"
         cy="100"
         r="5"
         id="circle5" /><path
         d="m 15,135 v 10 h 10 v -5 a 5,5 0 0 0 -5,-5"
         id="path6" /><rect
         x="15"
         y="145"
         width="10"
         height="10"
         id="rect6" /><path
         d="m 15,155 v 10 h 5 a 5,5 0 0 0 0,-10"
         transform="rotate(90,20,160)"
         id="path7" /><path
         d="m 15,185 v 10 h 5 a 5,5 0 0 0 0,-10"
         transform="rotate(-90,20,190)"
         id="path8" /><rect
         x="15"
         y="195"
         width="10"
         height="10"
         id="rect8" /><rect
         x="15"
         y="205"
         width="10"
         height="10"
         id="rect9" /><circle
         cx="30"
         cy="90"
         r="5"
         id="circle9" /><path
         d="m 25,105 v 10 h 5 a 5,5 0 0 0 0,-10"
         transform="rotate(180,30,110)"
         id="path9" /><circle
         cx="30"
         cy="130"
         r="5"
         id="circle10" /><path
         d="m 25,145 v 10 h 5 a 5,5 0 0 0 0,-10"
         id="path10" /><circle
         cx="30"
         cy="180"
         r="5"
         id="circle11" /><rect
         x="25"
         y="195"
         width="10"
         height="10"
         id="rect11" /><rect
         x="25"
         y="205"
         width="10"
         height="10"
         id="rect12" /><path
         d="m 35,105 v 10 h 10 v -5 a 5,5 0 0 0 -5,-5"
         id="path12" /><path
         d="m 35,115 v 10 h 10 v -5 a 5,5 0 0 0 -5,-5"
         transform="rotate(180,40,120)"
         id="path13" /><path
         d="m 35,135 v 10 h 5 a 5,5 0 0 0 0,-10"
         transform="rotate(180,40,140)"
         id="path14" /><path
         d="m 35,185 v 10 h 10 v -5 a 5,5 0 0 0 -5,-5"
         transform="rotate(-90,40,190)"
         id="path15" /><rect
         x="35"
         y="195"
         width="10"
         height="10"
         id="rect15" /><path
         d="m 35,205 v 10 h 10 v -5 a 5,5 0 0 0 -5,-5"
         transform="rotate(90,40,210)"
         id="path16" /><path
         d="M 45,85 V 95 H 55 V 90 A 5,5 0 0 0 50,85"
         transform="rotate(-90,50,90)"
         id="path17" /><path
         d="m 45,95 v 10 h 5 a 5,5 0 0 0 0,-10"
         transform="rotate(90,50,100)"
         id="path18" /><rect
         x="45"
         y="115"
         width="10"
         height="10"
         id="rect18" /><rect
         x="45"
         y="125"
         width="10"
         height="10"
         id="rect19" /><rect
         x="45"
         y="135"
         width="10"
         height="10"
         id="rect20" /><path
         d="m 45,145 v 10 h 10 v -5 a 5,5 0 0 0 -5,-5"
         transform="rotate(180,50,150)"
         id="path20" /><circle
         cx="50"
         cy="170"
         r="5"
         id="circle20" /><rect
         x="45"
         y="185"
         width="10"
         height="10"
         id="rect21" /><rect
         x="55"
         y="85"
         width="10"
         height="10"
         id="rect22" /><path
         d="m 55,115 v 10 h 10 v -5 a 5,5 0 0 0 -5,-5"
         id="path22" /><rect
         x="55"
         y="125"
         width="10"
         height="10"
         id="rect23" /><rect
         x="55"
         y="135"
         width="10"
         height="10"
         id="rect24" /><rect
         x="55"
         y="145"
         width="10"
         height="10"
         id="rect25" /><rect
         x="55"
         y="185"
         width="10"
         height="10"
         id="rect26" /><rect
         x="55"
         y="195"
         width="10"
         height="10"
         id="rect27" /><path
         d="m 55,205 v 10 h 10 v -5 a 5,5 0 0 0 -5,-5"
         transform="rotate(180,60,210)"
         id="path27" /><path
         d="m 65,85 v 10 h 5 a 5,5 0 0 0 0,-10"
         id="path28" /><circle
         cx="70"
         cy="110"
         r="5"
         id="circle28" /><path
         d="m 65,125 v 10 h 5 a 5,5 0 0 0 0,-10"
         id="path29" /><rect
         x="65"
         y="145"
         width="10"
         height="10"
         id="rect29" /><path
         d="m 65,165 v 10 h 5 a 5,5 0 0 0 0,-10"
         transform="rotate(180,70,170)"
         id="path30" /><rect
         x="65"
         y="185"
         width="10"
         height="10"
         id="rect30" /><path
         d="m 65,205 v 10 h 5 a 5,5 0 0 0 0,-10"
         id="path31" /><path
         d="m 75,135 v 10 h 5 a 5,5 0 0 0 0,-10"
         transform="rotate(-90,80,140)"
         id="path32" /><path
         d="m 75,145 v 10 h 10 v -5 a 5,5 0 0 0 -5,-5"
         transform="rotate(90,80,150)"
         id="path33" /><path
         d="m 75,165 v 10 h 10 v -5 a 5,5 0 0 0 -5,-5"
         id="path34" /><rect
         x="75"
         y="175"
         width="10"
         height="10"
         id="rect34" /><rect
         x="75"
         y="185"
         width="10"
         height="10"
         id="rect35" /><path
         d="m 75,195 v 10 h 10 v -5 a 5,5 0 0 0 -5,-5"
         transform="rotate(180,80,200)"
         id="path35" /><path
         d="m 85,15 v 10 h 5 a 5,5 0 0 0 0,-10"
         transform="rotate(180,90,20)"
         id="path36" /><path
         d="m 85,45 v 10 h 5 a 5,5 0 0 0 0,-10"
         transform="rotate(180,90,50)"
         id="path37" /><circle
         cx="90"
         cy="70"
         r="5"
         id="circle37" /><path
         d="m 85,85 v 10 h 5 a 5,5 0 0 0 0,-10"
         transform="rotate(-90,90,90)"
         id="path38" /><path
         d="m 85,95 v 10 h 5 a 5,5 0 0 0 0,-10"
         transform="rotate(90,90,100)"
         id="path39" /><circle
         cx="90"
         cy="120"
         r="5"
         id="circle39" /><circle
         cx="90"
         cy="160"
         r="5"
         id="circle40" /><rect
         x="85"
         y="175"
         width="10"
         height="10"
         id="rect40" /><rect
         x="85"
         y="185"
         width="10"
         height="10"
         id="rect41" /><rect
         x="85"
         y="195"
         width="10"
         height="10"
         id="rect42" /><rect
         x="85"
         y="205"
         width="10"
         height="10"
         id="rect43" /><path
         d="m 85,215 v 10 h 10 v -5 a 5,5 0 0 0 -5,-5"
         transform="rotate(180,90,220)"
         id="path43" /><path
         d="m 85,235 v 10 h 5 a 5,5 0 0 0 0,-10"
         transform="rotate(-90,90,240)"
         id="path44" /><path
         d="m 85,245 v 10 h 10 v -5 a 5,5 0 0 0 -5,-5"
         transform="rotate(180,90,250)"
         id="path45" /><circle
         cx="90"
         cy="270"
         r="5"
         id="circle45" /><path
         d="m 95,5 v 10 h 10 v -5 a 5,5 0 0 0 -5,-5"
         transform="rotate(-90,100,10)"
         id="path46" /><rect
         x="95"
         y="15"
         width="10"
         height="10"
         id="rect46" /><rect
         x="95"
         y="25"
         width="10"
         height="10"
         id="rect47" /><rect
         x="95"
         y="35"
         width="10"
         height="10"
         id="rect48" /><rect
         x="95"
         y="45"
         width="10"
         height="10"
         id="rect49" /><path
         d="m 95,55 v 10 h 10 v -5 a 5,5 0 0 0 -5,-5"
         transform="rotate(180,100,60)"
         id="path49" /><circle
         cx="100"
         cy="80"
         r="5"
         id="circle49" /><circle
         cx="100"
         cy="110"
         r="5"
         id="circle50" /><path
         d="m 95,135 v 10 h 5 a 5,5 0 0 0 0,-10"
         transform="rotate(-90,100,140)"
         id="path50" /><path
         d="m 95,145 v 10 h 5 a 5,5 0 0 0 0,-10"
         transform="rotate(90,100,150)"
         id="path51" /><path
         d="m 95,165 v 10 h 5 a 5,5 0 0 0 0,-10"
         transform="rotate(-90,100,170)"
         id="path52" /><path
         d="m 95,175 v 10 h 10 v -5 a 5,5 0 0 0 -5,-5"
         transform="rotate(90,100,180)"
         id="path53" /><rect
         x="95"
         y="205"
         width="10"
         height="10"
         id="rect53" /><rect
         x="95"
         y="215"
         width="10"
         height="10"
         id="rect54" /><path
         d="m 95,225 v 10 h 5 a 5,5 0 0 0 0,-10"
         transform="rotate(90,100,230)"
         id="path54" /><rect
         x="95"
         y="245"
         width="10"
         height="10"
         id="rect55" /><path
         d="m 95,275 v 10 h 5 a 5,5 0 0 0 0,-10"
         transform="rotate(-90,100,280)"
         id="path55" /><path
         d="m 95,285 v 10 h 10 v -5 a 5,5 0 0 0 -5,-5"
         transform="rotate(180,100,290)"
         id="path56" /><rect
         x="105"
         y="5"
         width="10"
         height="10"
         id="rect56" /><path
         d="m 105,15 v 10 h 10 v -5 a 5,5 0 0 0 -5,-5"
         transform="rotate(90,110,20)"
         id="path57" /><rect
         x="105"
         y="35"
         width="10"
         height="10"
         id="rect57" /><rect
         x="105"
         y="45"
         width="10"
         height="10"
         id="rect58" /><rect
         x="105"
         y="55"
         width="10"
         height="10"
         id="rect59" /><path
         d="m 105,65 v 10 h 5 a 5,5 0 0 0 0,-10"
         transform="rotate(90,110,70)"
         id="path59" /><circle
         cx="110"
         cy="100"
         r="5"
         id="circle59" /><rect
         x="105"
         y="205"
         width="10"
         height="10"
         id="rect60" /><rect
         x="105"
         y="215"
         width="10"
         height="10"
         id="rect61" /><rect
         x="105"
         y="245"
         width="10"
         height="10"
         id="rect62" /><rect
         x="105"
         y="255"
         width="10"
         height="10"
         id="rect63" /><path
         d="m 105,265 v 10 h 5 a 5,5 0 0 0 0,-10"
         transform="rotate(90,110,270)"
         id="path63" /><rect
         x="105"
         y="285"
         width="10"
         height="10"
         id="rect64" /><path
         d="m 115,5 v 10 h 5 a 5,5 0 0 0 0,-10"
         id="path64" /><rect
         x="115"
         y="35"
         width="10"
         height="10"
         id="rect65" /><circle
         cx="120"
         cy="80"
         r="5"
         id="circle65" /><path
         d="m 115,195 v 10 h 10 v -5 a 5,5 0 0 0 -5,-5"
         transform="rotate(-90,120,200)"
         id="path65" /><rect
         x="115"
         y="205"
         width="10"
         height="10"
         id="rect66" /><path
         d="m 115,215 v 10 h 10 v -5 a 5,5 0 0 0 -5,-5"
         transform="rotate(90,120,220)"
         id="path66" /><path
         d="m 115,245 v 10 h 10 v -5 a 5,5 0 0 0 -5,-5"
         id="path67" /><rect
         x="115"
         y="255"
         width="10"
         height="10"
         id="rect67" /><path
         d="m 115,275 v 10 h 5 a 5,5 0 0 0 0,-10"
         transform="rotate(-90,120,280)"
         id="path68" /><rect
         x="115"
         y="285"
         width="10"
         height="10"
         id="rect68" /><circle
         cx="130"
         cy="20"
         r="5"
         id="circle68" /><path
         d="m 125,35 v 10 h 5 a 5,5 0 0 0 0,-10"
         id="path69" /><path
         d="m 125,55 v 10 h 10 v -5 a 5,5 0 0 0 -5,-5"
         transform="rotate(-90,130,60)"
         id="path70" /><path
         d="m 125,65 v 10 h 5 a 5,5 0 0 0 0,-10"
         transform="rotate(90,130,70)"
         id="path71" /><path
         d="m 125,85 v 10 h 5 a 5,5 0 0 0 0,-10"
         transform="rotate(180,130,90)"
         id="path72" /><path
         d="m 125,195 v 10 h 5 a 5,5 0 0 0 0,-10"
         id="path73" /><circle
         cx="130"
         cy="240"
         r="5"
         id="circle73" /><path
         d="m 125,255 v 10 h 5 a 5,5 0 0 0 0,-10"
         id="path74" /><rect
         x="125"
         y="285"
         width="10"
         height="10"
         id="rect74" /><circle
         cx="140"
         cy="30"
         r="5"
         id="circle74" /><rect
         x="135"
         y="55"
         width="10"
         height="10"
         id="rect75" /><path
         d="m 135,85 v 10 h 5 a 5,5 0 0 0 0,-10"
         id="path75" /><path
         d="m 135,225 v 10 h 5 a 5,5 0 0 0 0,-10"
         transform="rotate(180,140,230)"
         id="path76" /><path
         d="m 135,245 v 10 h 5 a 5,5 0 0 0 0,-10"
         transform="rotate(180,140,250)"
         id="path77" /><circle
         cx="140"
         cy="270"
         r="5"
         id="circle77" /><rect
         x="135"
         y="285"
         width="10"
         height="10"
         id="rect77" /><circle
         cx="150"
         cy="20"
         r="5"
         id="circle78" /><path
         d="m 145,55 v 10 h 10 v -5 a 5,5 0 0 0 -5,-5"
         id="path78" /><path
         d="m 145,65 v 10 h 5 a 5,5 0 0 0 0,-10"
         transform="rotate(90,150,70)"
         id="path79" /><path
         d="m 145,95 v 10 h 5 a 5,5 0 0 0 0,-10"
         transform="rotate(180,150,100)"
         id="path80" /><path
         d="m 145,205 v 10 h 5 a 5,5 0 0 0 0,-10"
         transform="rotate(-90,150,210)"
         id="path81" /><rect
         x="145"
         y="215"
         width="10"
         height="10"
         id="rect81" /><path
         d="m 145,225 v 10 h 10 v -5 a 5,5 0 0 0 -5,-5"
         transform="rotate(90,150,230)"
         id="path82" /><path
         d="m 145,245 v 10 h 5 a 5,5 0 0 0 0,-10"
         id="path83" /><path
         d="m 145,275 v 10 h 5 a 5,5 0 0 0 0,-10"
         transform="rotate(-90,150,280)"
         id="path84" /><path
         d="m 145,285 v 10 h 10 v -5 a 5,5 0 0 0 -5,-5"
         transform="rotate(90,150,290)"
         id="path85" /><circle
         cx="160"
         cy="40"
         r="5"
         id="circle85" /><path
         d="m 155,75 v 10 h 10 v -5 a 5,5 0 0 0 -5,-5"
         transform="rotate(-90,160,80)"
         id="path86" /><rect
         x="155"
         y="85"
         width="10"
         height="10"
         id="rect86" /><rect
         x="155"
         y="95"
         width="10"
         height="10"
         id="rect87" /><path
         d="m 155,215 v 10 h 5 a 5,5 0 0 0 0,-10"
         id="path87" /><circle
         cx="160"
         cy="240"
         r="5"
         id="circle87" /><circle
         cx="160"
         cy="260"
         r="5"
         id="circle88" /><path
         d="m 165,5 v 10 h 10 v -5 a 5,5 0 0 0 -5,-5"
         transform="rotate(-90,170,10)"
         id="path88" /><rect
         x="165"
         y="15"
         width="10"
         height="10"
         id="rect88" /><path
         d="m 165,25 v 10 h 5 a 5,5 0 0 0 0,-10"
         transform="rotate(90,170,30)"
         id="path89" /><path
         d="m 165,65 v 10 h 5 a 5,5 0 0 0 0,-10"
         transform="rotate(-90,170,70)"
         id="path90" /><rect
         x="165"
         y="75"
         width="10"
         height="10"
         id="rect90" /><path
         d="m 165,95 v 10 h 5 a 5,5 0 0 0 0,-10"
         id="path91" /><circle
         cx="170"
         cy="200"
         r="5"
         id="circle91" /><circle
         cx="170"
         cy="280"
         r="5"
         id="circle92" /><path
         d="m 175,5 v 10 h 10 v -5 a 5,5 0 0 0 -5,-5"
         id="path92" /><path
         d="m 175,15 v 10 h 10 v -5 a 5,5 0 0 0 -5,-5"
         transform="rotate(90,180,20)"
         id="path93" /><path
         d="m 175,45 v 10 h 10 v -5 a 5,5 0 0 0 -5,-5"
         transform="rotate(-90,180,50)"
         id="path94" /><path
         d="m 175,55 v 10 h 5 a 5,5 0 0 0 0,-10"
         transform="rotate(90,180,60)"
         id="path95" /><path
         d="m 175,75 v 10 h 10 v -5 a 5,5 0 0 0 -5,-5"
         id="path96" /><path
         d="m 175,85 v 10 h 10 v -5 a 5,5 0 0 0 -5,-5"
         transform="rotate(180,180,90)"
         id="path97" /><path
         d="m 175,205 v 10 h 5 a 5,5 0 0 0 0,-10"
         transform="rotate(-90,180,210)"
         id="path98" /><rect
         x="175"
         y="215"
         width="10"
         height="10"
         id="rect98" /><path
         d="m 175,225 v 10 h 5 a 5,5 0 0 0 0,-10"
         transform="rotate(90,180,230)"
         id="path99" /><path
         d="m 175,245 v 10 h 10 v -5 a 5,5 0 0 0 -5,-5"
         transform="rotate(-90,180,250)"
         id="path100" /><rect
         x="175"
         y="255"
         width="10"
         height="10"
         id="rect100" /><path
         d="m 175,265 v 10 h 5 a 5,5 0 0 0 0,-10"
         transform="rotate(90,180,270)"
         id="path101" /><path
         d="m 175,285 v 10 h 5 a 5,5 0 0 0 0,-10"
         transform="rotate(180,180,290)"
         id="path102" /><path
         d="m 185,25 v 10 h 10 v -5 a 5,5 0 0 0 -5,-5"
         transform="rotate(-90,190,30)"
         id="path103" /><rect
         x="185"
         y="35"
         width="10"
         height="10"
         id="rect103" /><rect
         x="185"
         y="45"
         width="10"
         height="10"
         id="rect104" /><circle
         cx="190"
         cy="70"
         r="5"
         id="circle104" /><path
         d="m 185,85 v 10 h 5 a 5,5 0 0 0 0,-10"
         id="path104" /><path
         d="m 185,245 v 10 h 10 v -5 a 5,5 0 0 0 -5,-5"
         id="path105" /><rect
         x="185"
         y="255"
         width="10"
         height="10"
         id="rect105" /><rect
         x="185"
         y="285"
         width="10"
         height="10"
         id="rect106" /><rect
         x="195"
         y="25"
         width="10"
         height="10"
         id="rect107" /><rect
         x="195"
         y="35"
         width="10"
         height="10"
         id="rect108" /><rect
         x="195"
         y="45"
         width="10"
         height="10"
         id="rect109" /><path
         d="m 195,55 v 10 h 5 a 5,5 0 0 0 0,-10"
         transform="rotate(90,200,60)"
         id="path109" /><path
         d="m 195,95 v 10 h 10 v -5 a 5,5 0 0 0 -5,-5"
         transform="rotate(-90,200,100)"
         id="path110" /><rect
         x="195"
         y="105"
         width="10"
         height="10"
         id="rect110" /><path
         d="m 195,115 v 10 h 10 v -5 a 5,5 0 0 0 -5,-5"
         transform="rotate(180,200,120)"
         id="path111" /><path
         d="m 195,145 v 10 h 10 v -5 a 5,5 0 0 0 -5,-5"
         transform="rotate(-90,200,150)"
         id="path112" /><rect
         x="195"
         y="155"
         width="10"
         height="10"
         id="rect112" /><rect
         x="195"
         y="165"
         width="10"
         height="10"
         id="rect113" /><path
         d="m 195,175 v 10 h 10 v -5 a 5,5 0 0 0 -5,-5"
         transform="rotate(180,200,180)"
         id="path113" /><path
         d="m 195,235 v 10 h 5 a 5,5 0 0 0 0,-10"
         transform="rotate(180,200,240)"
         id="path114" /><rect
         x="195"
         y="255"
         width="10"
         height="10"
         id="rect114" /><path
         d="m 195,275 v 10 h 5 a 5,5 0 0 0 0,-10"
         transform="rotate(-90,200,280)"
         id="path115" /><path
         d="m 195,285 v 10 h 10 v -5 a 5,5 0 0 0 -5,-5"
         transform="rotate(90,200,290)"
         id="path116" /><path
         d="m 205,5 v 10 h 5 a 5,5 0 0 0 0,-10"
         transform="rotate(-90,210,10)"
         id="path117" /><rect
         x="205"
         y="15"
         width="10"
         height="10"
         id="rect117" /><path
         d="m 205,25 v 10 h 10 v -5 a 5,5 0 0 0 -5,-5"
         transform="rotate(90,210,30)"
         id="path118" /><path
         d="m 205,45 v 10 h 5 a 5,5 0 0 0 0,-10"
         id="path119" /><path
         d="m 205,65 v 10 h 5 a 5,5 0 0 0 0,-10"
         transform="rotate(-90,210,70)"
         id="path120" /><path
         d="m 205,75 v 10 h 5 a 5,5 0 0 0 0,-10"
         transform="rotate(90,210,80)"
         id="path121" /><rect
         x="205"
         y="95"
         width="10"
         height="10"
         id="rect121" /><path
         d="m 205,115 v 10 h 5 a 5,5 0 0 0 0,-10"
         id="path122" /><path
         d="m 205,135 v 10 h 10 v -5 a 5,5 0 0 0 -5,-5"
         transform="rotate(-90,210,140)"
         id="path123" /><path
         d="m 205,145 v 10 h 10 v -5 a 5,5 0 0 0 -5,-5"
         transform="rotate(90,210,150)"
         id="path124" /><rect
         x="205"
         y="165"
         width="10"
         height="10"
         id="rect124" /><rect
         x="205"
         y="175"
         width="10"
         height="10"
         id="rect125" /><rect
         x="205"
         y="185"
         width="10"
         height="10"
         id="rect126" /><rect
         x="205"
         y="195"
         width="10"
         height="10"
         id="rect127" /><rect
         x="205"
         y="205"
         width="10"
         height="10"
         id="rect128" /><rect
         x="205"
         y="215"
         width="10"
         height="10"
         id="rect129" /><rect
         x="205"
         y="225"
         width="10"
         height="10"
         id="rect130" /><rect
         x="205"
         y="235"
         width="10"
         height="10"
         id="rect131" /><rect
         x="205"
         y="245"
         width="10"
         height="10"
         id="rect132" /><path
         d="m 205,255 v 10 h 10 v -5 a 5,5 0 0 0 -5,-5"
         transform="rotate(90,210,260)"
         id="path132" /><path
         d="m 215,85 v 10 h 5 a 5,5 0 0 0 0,-10"
         transform="rotate(-90,220,90)"
         id="path133" /><rect
         x="215"
         y="95"
         width="10"
         height="10"
         id="rect133" /><path
         d="m 215,105 v 10 h 5 a 5,5 0 0 0 0,-10"
         transform="rotate(90,220,110)"
         id="path134" /><path
         d="m 215,125 v 10 h 5 a 5,5 0 0 0 0,-10"
         transform="rotate(-90,220,130)"
         id="path135" /><rect
         x="215"
         y="135"
         width="10"
         height="10"
         id="rect135" /><path
         d="m 215,155 v 10 h 10 v -5 a 5,5 0 0 0 -5,-5"
         transform="rotate(-90,220,160)"
         id="path136" /><path
         d="m 215,165 v 10 h 10 v -5 a 5,5 0 0 0 -5,-5"
         transform="rotate(90,220,170)"
         id="path137" /><rect
         x="215"
         y="185"
         width="10"
         height="10"
         id="rect137" /><rect
         x="215"
         y="195"
         width="10"
         height="10"
         id="rect138" /><rect
         x="215"
         y="205"
         width="10"
         height="10"
         id="rect139" /><rect
         x="215"
         y="245"
         width="10"
         height="10"
         id="rect140" /><circle
         cx="220"
         cy="270"
         r="5"
         id="circle140" /><path
         d="m 215,285 v 10 h 5 a 5,5 0 0 0 0,-10"
         transform="rotate(180,220,290)"
         id="path140" /><path
         d="m 225,95 v 10 h 5 a 5,5 0 0 0 0,-10"
         id="path141" /><rect
         x="225"
         y="135"
         width="10"
         height="10"
         id="rect141" /><rect
         x="225"
         y="145"
         width="10"
         height="10"
         id="rect142" /><path
         d="m 225,155 v 10 h 10 v -5 a 5,5 0 0 0 -5,-5"
         transform="rotate(90,230,160)"
         id="path142" /><path
         d="m 225,175 v 10 h 10 v -5 a 5,5 0 0 0 -5,-5"
         transform="rotate(-90,230,180)"
         id="path143" /><rect
         x="225"
         y="185"
         width="10"
         height="10"
         id="rect143" /><rect
         x="225"
         y="195"
         width="10"
         height="10"
         id="rect144" /><rect
         x="225"
         y="205"
         width="10"
         height="10"
         id="rect145" /><circle
         cx="230"
         cy="230"
         r="5"
         id="circle145" /><rect
         x="225"
         y="245"
         width="10"
         height="10"
         id="rect146" /><path
         d="m 225,285 v 10 h 5 a 5,5 0 0 0 0,-10"
         id="path146" /><path
         d="m 235,105 v 10 h 5 a 5,5 0 0 0 0,-10"
         transform="rotate(-90,240,110)"
         id="path147" /><rect
         x="235"
         y="115"
         width="10"
         height="10"
         id="rect147" /><rect
         x="235"
         y="125"
         width="10"
         height="10"
         id="rect148" /><rect
         x="235"
         y="135"
         width="10"
         height="10"
         id="rect149" /><path
         d="m 235,145 v 10 h 10 v -5 a 5,5 0 0 0 -5,-5"
         transform="rotate(90,240,150)"
         id="path149" /><rect
         x="235"
         y="175"
         width="10"
         height="10"
         id="rect150" /><rect
         x="235"
         y="195"
         width="10"
         height="10"
         id="rect151" /><rect
         x="235"
         y="205"
         width="10"
         height="10"
         id="rect152" /><rect
         x="235"
         y="245"
         width="10"
         height="10"
         id="rect153" /><path
         d="m 235,255 v 10 h 5 a 5,5 0 0 0 0,-10"
         transform="rotate(90,240,260)"
         id="path153" /><circle
         cx="240"
         cy="280"
         r="5"
         id="circle153" /><path
         d="m 245,85 v 10 h 5 a 5,5 0 0 0 0,-10"
         transform="rotate(-90,250,90)"
         id="path154" /><path
         d="m 245,95 v 10 h 10 v -5 a 5,5 0 0 0 -5,-5"
         transform="rotate(180,250,100)"
         id="path155" /><path
         d="m 245,115 v 10 h 10 v -5 a 5,5 0 0 0 -5,-5"
         id="path156" /><path
         d="m 245,125 v 10 h 10 v -5 a 5,5 0 0 0 -5,-5"
         transform="rotate(90,250,130)"
         id="path157" /><path
         d="m 245,155 v 10 h 10 v -5 a 5,5 0 0 0 -5,-5"
         transform="rotate(-90,250,160)"
         id="path158" /><rect
         x="245"
         y="165"
         width="10"
         height="10"
         id="rect158" /><rect
         x="245"
         y="175"
         width="10"
         height="10"
         id="rect159" /><rect
         x="245"
         y="185"
         width="10"
         height="10"
         id="rect160" /><rect
         x="245"
         y="195"
         width="10"
         height="10"
         id="rect161" /><rect
         x="245"
         y="205"
         width="10"
         height="10"
         id="rect162" /><rect
         x="245"
         y="215"
         width="10"
         height="10"
         id="rect163" /><rect
         x="245"
         y="225"
         width="10"
         height="10"
         id="rect164" /><rect
         x="245"
         y="235"
         width="10"
         height="10"
         id="rect165" /><path
         d="m 245,245 v 10 h 10 v -5 a 5,5 0 0 0 -5,-5"
         transform="rotate(90,250,250)"
         id="path165" /><rect
         x="255"
         y="95"
         width="10"
         height="10"
         id="rect166" /><path
         d="m 255,105 v 10 h 5 a 5,5 0 0 0 0,-10"
         transform="rotate(90,260,110)"
         id="path166" /><rect
         x="255"
         y="155"
         width="10"
         height="10"
         id="rect167" /><path
         d="m 255,175 v 10 h 5 a 5,5 0 0 0 0,-10"
         id="path167" /><path
         d="m 255,235 v 10 h 5 a 5,5 0 0 0 0,-10"
         id="path168" /><path
         d="m 255,255 v 10 h 5 a 5,5 0 0 0 0,-10"
         transform="rotate(-90,260,260)"
         id="path169" /><path
         d="m 255,265 v 10 h 10 v -5 a 5,5 0 0 0 -5,-5"
         transform="rotate(180,260,270)"
         id="path170" /><path
         d="m 255,285 v 10 h 5 a 5,5 0 0 0 0,-10"
         transform="rotate(180,260,290)"
         id="path171" /><path
         d="m 265,95 v 10 h 5 a 5,5 0 0 0 0,-10"
         id="path172" /><path
         d="m 265,145 v 10 h 5 a 5,5 0 0 0 0,-10"
         transform="rotate(-90,270,150)"
         id="path173" /><rect
         x="265"
         y="155"
         width="10"
         height="10"
         id="rect173" /><path
         d="m 265,185 v 10 h 5 a 5,5 0 0 0 0,-10"
         transform="rotate(-90,270,190)"
         id="path174" /><rect
         x="265"
         y="195"
         width="10"
         height="10"
         id="rect174" /><rect
         x="265"
         y="205"
         width="10"
         height="10"
         id="rect175" /><path
         d="m 265,215 v 10 h 5 a 5,5 0 0 0 0,-10"
         transform="rotate(90,270,220)"
         id="path175" /><path
         d="m 265,265 v 10 h 10 v -5 a 5,5 0 0 0 -5,-5"
         id="path176" /><rect
         x="265"
         y="275"
         width="10"
         height="10"
         id="rect176" /><rect
         x="265"
         y="285"
         width="10"
         height="10"
         id="rect177" /><circle
         cx="280"
         cy="90"
         r="5"
         id="circle177" /><path
         d="m 275,155 v 10 h 10 v -5 a 5,5 0 0 0 -5,-5"
         id="path177" /><rect
         x="275"
         y="165"
         width="10"
         height="10"
         id="rect178" /><path
         d="m 275,175 v 10 h 10 v -5 a 5,5 0 0 0 -5,-5"
         transform="rotate(180,280,180)"
         id="path178" /><rect
         x="275"
         y="195"
         width="10"
         height="10"
         id="rect179" /><rect
         x="275"
         y="205"
         width="10"
         height="10"
         id="rect180" /><path
         d="m 275,225 v 10 h 5 a 5,5 0 0 0 0,-10"
         transform="rotate(-90,280,230)"
         id="path180" /><path
         d="m 275,235 v 10 h 5 a 5,5 0 0 0 0,-10"
         transform="rotate(90,280,240)"
         id="path181" /><circle
         cx="280"
         cy="260"
         r="5"
         id="circle181" /><rect
         x="275"
         y="275"
         width="10"
         height="10"
         id="rect181" /><path
         d="m 275,285 v 10 h 10 v -5 a 5,5 0 0 0 -5,-5"
         transform="rotate(90,280,290)"
         id="path182" /><circle
         cx="290"
         cy="100"
         r="5"
         id="circle182" /><path
         d="m 285,125 v 10 h 5 a 5,5 0 0 0 0,-10"
         transform="rotate(-90,290,130)"
         id="path183" /><rect
         x="285"
         y="135"
         width="10"
         height="10"
         id="rect183" /><path
         d="m 285,145 v 10 h 5 a 5,5 0 0 0 0,-10"
         transform="rotate(90,290,150)"
         id="path184" /><path
         d="m 285,175 v 10 h 5 a 5,5 0 0 0 0,-10"
         id="path185" /><path
         d="m 285,195 v 10 h 10 v -5 a 5,5 0 0 0 -5,-5"
         id="path186" /><path
         d="m 285,205 v 10 h 10 v -5 a 5,5 0 0 0 -5,-5"
         transform="rotate(90,290,210)"
         id="path187" /><circle
         cx="290"
         cy="250"
         r="5"
         id="circle187" /><path
         d="m 285,275 v 10 h 5 a 5,5 0 0 0 0,-10"
         id="path188" /><path
         d="M 5,5 V 15 H 15 V 10 A 5,5 0 0 0 10,5"
         transform="rotate(-90,10,10)"
         id="path189" /><rect
         x="5"
         y="15"
         width="10"
         height="10"
         id="rect189" /><rect
         x="5"
         y="25"
         width="10"
         height="10"
         id="rect190" /><rect
         x="5"
         y="35"
         width="10"
         height="10"
         id="rect191" /><rect
         x="5"
         y="45"
         width="10"
         height="10"
         id="rect192" /><rect
         x="5"
         y="55"
         width="10"
         height="10"
         id="rect193" /><path
         d="M 5,65 V 75 H 15 V 70 A 5,5 0 0 0 10,65"
         transform="rotate(180,10,70)"
         id="path193" /><rect
         x="15"
         y="5"
         width="10"
         height="10"
         id="rect194" /><rect
         x="15"
         y="65"
         width="10"
         height="10"
         id="rect195" /><rect
         x="25"
         y="5"
         width="10"
         height="10"
         id="rect196" /><rect
         x="25"
         y="65"
         width="10"
         height="10"
         id="rect197" /><rect
         x="35"
         y="5"
         width="10"
         height="10"
         id="rect198" /><rect
         x="35"
         y="65"
         width="10"
         height="10"
         id="rect199" /><rect
         x="45"
         y="5"
         width="10"
         height="10"
         id="rect200" /><rect
         x="45"
         y="65"
         width="10"
         height="10"
         id="rect201" /><rect
         x="55"
         y="5"
         width="10"
         height="10"
         id="rect202" /><rect
         x="55"
         y="65"
         width="10"
         height="10"
         id="rect203" /><path
         d="M 65,5 V 15 H 75 V 10 A 5,5 0 0 0 70,5"
         id="path203" /><rect
         x="65"
         y="15"
         width="10"
         height="10"
         id="rect204" /><rect
         x="65"
         y="25"
         width="10"
         height="10"
         id="rect205" /><rect
         x="65"
         y="35"
         width="10"
         height="10"
         id="rect206" /><rect
         x="65"
         y="45"
         width="10"
         height="10"
         id="rect207" /><rect
         x="65"
         y="55"
         width="10"
         height="10"
         id="rect208" /><path
         d="M 65,65 V 75 H 75 V 70 A 5,5 0 0 0 70,65"
         transform="rotate(90,70,70)"
         id="path208" /><path
         d="M 25,25 V 35 H 35 V 30 A 5,5 0 0 0 30,25"
         transform="rotate(-90,30,30)"
         id="path209" /><rect
         x="25"
         y="35"
         width="10"
         height="10"
         id="rect209" /><path
         d="M 25,45 V 55 H 35 V 50 A 5,5 0 0 0 30,45"
         transform="rotate(180,30,50)"
         id="path210" /><rect
         x="35"
         y="25"
         width="10"
         height="10"
         id="rect210" /><rect
         x="35"
         y="35"
         width="10"
         height="10"
         id="rect211" /><rect
         x="35"
         y="45"
         width="10"
         height="10"
         id="rect212" /><path
         d="M 45,25 V 35 H 55 V 30 A 5,5 0 0 0 50,25"
         id="path212" /><rect
         x="45"
         y="35"
         width="10"
         height="10"
         id="rect213" /><path
         d="M 45,45 V 55 H 55 V 50 A 5,5 0 0 0 50,45"
         transform="rotate(90,50,50)"
         id="path213" /><path
         d="m 225,5 v 10 h 10 v -5 a 5,5 0 0 0 -5,-5"
         transform="rotate(-90,230,10)"
         id="path214" /><rect
         x="225"
         y="15"
         width="10"
         height="10"
         id="rect214" /><rect
         x="225"
         y="25"
         width="10"
         height="10"
         id="rect215" /><rect
         x="225"
         y="35"
         width="10"
         height="10"
         id="rect216" /><rect
         x="225"
         y="45"
         width="10"
         height="10"
         id="rect217" /><rect
         x="225"
         y="55"
         width="10"
         height="10"
         id="rect218" /><path
         d="m 225,65 v 10 h 10 v -5 a 5,5 0 0 0 -5,-5"
         transform="rotate(180,230,70)"
         id="path218" /><rect
         x="235"
         y="5"
         width="10"
         height="10"
         id="rect219" /><rect
         x="235"
         y="65"
         width="10"
         height="10"
         id="rect220" /><rect
         x="245"
         y="5"
         width="10"
         height="10"
         id="rect221" /><rect
         x="245"
         y="65"
         width="10"
         height="10"
         id="rect222" /><rect
         x="255"
         y="5"
         width="10"
         height="10"
         id="rect223" /><rect
         x="255"
         y="65"
         width="10"
         height="10"
         id="rect224" /><rect
         x="265"
         y="5"
         width="10"
         height="10"
         id="rect225" /><rect
         x="265"
         y="65"
         width="10"
         height="10"
         id="rect226" /><rect
         x="275"
         y="5"
         width="10"
         height="10"
         id="rect227" /><rect
         x="275"
         y="65"
         width="10"
         height="10"
         id="rect228" /><path
         d="m 285,5 v 10 h 10 v -5 a 5,5 0 0 0 -5,-5"
         id="path228" /><rect
         x="285"
         y="15"
         width="10"
         height="10"
         id="rect229" /><rect
         x="285"
         y="25"
         width="10"
         height="10"
         id="rect230" /><rect
         x="285"
         y="35"
         width="10"
         height="10"
         id="rect231" /><rect
         x="285"
         y="45"
         width="10"
         height="10"
         id="rect232" /><rect
         x="285"
         y="55"
         width="10"
         height="10"
         id="rect233" /><path
         d="m 285,65 v 10 h 10 v -5 a 5,5 0 0 0 -5,-5"
         transform="rotate(90,290,70)"
         id="path233" /><path
         d="m 245,25 v 10 h 10 v -5 a 5,5 0 0 0 -5,-5"
         transform="rotate(-90,250,30)"
         id="path234" /><rect
         x="245"
         y="35"
         width="10"
         height="10"
         id="rect234" /><path
         d="m 245,45 v 10 h 10 v -5 a 5,5 0 0 0 -5,-5"
         transform="rotate(180,250,50)"
         id="path235" /><rect
         x="255"
         y="25"
         width="10"
         height="10"
         id="rect235" /><rect
         x="255"
         y="35"
         width="10"
         height="10"
         id="rect236" /><rect
         x="255"
         y="45"
         width="10"
         height="10"
         id="rect237" /><path
         d="m 265,25 v 10 h 10 v -5 a 5,5 0 0 0 -5,-5"
         id="path237" /><rect
         x="265"
         y="35"
         width="10"
         height="10"
         id="rect238" /><path
         d="m 265,45 v 10 h 10 v -5 a 5,5 0 0 0 -5,-5"
         transform="rotate(90,270,50)"
         id="path238" /><path
         d="m 5,225 v 10 h 10 v -5 a 5,5 0 0 0 -5,-5"
         transform="rotate(-90,10,230)"
         id="path239" /><rect
         x="5"
         y="235"
         width="10"
         height="10"
         id="rect239" /><rect
         x="5"
         y="245"
         width="10"
         height="10"
         id="rect240" /><rect
         x="5"
         y="255"
         width="10"
         height="10"
         id="rect241" /><rect
         x="5"
         y="265"
         width="10"
         height="10"
         id="rect242" /><rect
         x="5"
         y="275"
         width="10"
         height="10"
         id="rect243" /><path
         d="m 5,285 v 10 h 10 v -5 a 5,5 0 0 0 -5,-5"
         transform="rotate(180,10,290)"
         id="path243" /><rect
         x="15"
         y="225"
         width="10"
         height="10"
         id="rect244" /><rect
         x="15"
         y="285"
         width="10"
         height="10"
         id="rect245" /><rect
         x="25"
         y="225"
         width="10"
         height="10"
         id="rect246" /><rect
         x="25"
         y="285"
         width="10"
         height="10"
         id="rect247" /><rect
         x="35"
         y="225"
         width="10"
         height="10"
         id="rect248" /><rect
         x="35"
         y="285"
         width="10"
         height="10"
         id="rect249" /><rect
         x="45"
         y="225"
         width="10"
         height="10"
         id="rect250" /><rect
         x="45"
         y="285"
         width="10"
         height="10"
         id="rect251" /><rect
         x="55"
         y="225"
         width="10"
         height="10"
         id="rect252" /><rect
         x="55"
         y="285"
         width="10"
         height="10"
         id="rect253" /><path
         d="m 65,225 v 10 h 10 v -5 a 5,5 0 0 0 -5,-5"
         id="path253" /><rect
         x="65"
         y="235"
         width="10"
         height="10"
         id="rect254" /><rect
         x="65"
         y="245"
         width="10"
         height="10"
         id="rect255" /><rect
         x="65"
         y="255"
         width="10"
         height="10"
         id="rect256" /><rect
         x="65"
         y="265"
         width="10"
         height="10"
         id="rect257" /><rect
         x="65"
         y="275"
         width="10"
         height="10"
         id="rect258" /><path
         d="m 65,285 v 10 h 10 v -5 a 5,5 0 0 0 -5,-5"
         transform="rotate(90,70,290)"
         id="path258" /><path
         d="m 25,245 v 10 h 10 v -5 a 5,5 0 0 0 -5,-5"
         transform="rotate(-90,30,250)"
         id="path259" /><rect
         x="25"
         y="255"
         width="10"
         height="10"
         id="rect259" /><path
         d="m 25,265 v 10 h 10 v -5 a 5,5 0 0 0 -5,-5"
         transform="rotate(180,30,270)"
         id="path260" /><rect
         x="35"
         y="245"
         width="10"
         height="10"
         id="rect260" /><rect
         x="35"
         y="255"
         width="10"
         height="10"
         id="rect261" /><rect
         x="35"
         y="265"
         width="10"
         height="10"
         id="rect262" /><path
         d="m 45,245 v 10 h 10 v -5 a 5,5 0 0 0 -5,-5"
         id="path262" /><rect
         x="45"
         y="255"
         width="10"
         height="10"
         id="rect263" /><path
         d="m 45,265 v 10 h 10 v -5 a 5,5 0 0 0 -5,-5"
         transform="rotate(90,50,270)"
         id="path263" /></clipPath><clipPath
       id="clip0_901_1370"><rect
         width="32"
         height="32"
         fill="#ffffff"
         id="rect1-6"
         x="0"
         y="0" /></clipPath></defs><rect
     x="438.19684"
     y="92.44606"
     height="300"
     width="300"
     clip-path="url('#clip-path-background-color')"
     fill="#ffffffff"
     id="rect264"
     style="fill:none" /><rect
     x="5"
     y="5"
     height="290"
     width="290"
     clip-path="url(#clip-path-dot-color)"
     fill="#363f4c"
     id="rect265"
     transform="translate(438.19683,92.446063)" /><g
     style="fill:none;stroke:#363f4c;stroke-opacity:1;stroke-width:2.57164102;stroke-dasharray:none"
     id="g265"
     transform="matrix(1.9722815,0,0,1.9722815,556.64033,210.88942)"><path
       d="m 21,1 v 9 c 0,0 0,1 1,1 h 4 M 21,1 c 0,0 1,0 2,1 l 7,7 c 1,1 1,2 1,2 v 19 c 0,1 -1,1 -1,1 H 13 V 11 M 21,1 H 11 m 2,10 -6,2 M 13,11 7,1 1,11 M 7,31 V 13 M 7,13 1,11 M 4,6 h 6 m -9,5 v 18"
       stroke="#000000"
       stroke-width="2"
       stroke-linecap="round"
       stroke-linejoin="round"
       id="path1-3"
       clip-path="url(#clipPath2)"
       style="stroke:#363f4c;stroke-opacity:1;stroke-width:2.57164102;stroke-dasharray:none" /></g><text
     xml:space="preserve"
     style="font-style:normal;font-variant:normal;font-weight:normal;font-stretch:normal;font-size:37.3333px;line-height:1.15;font-family:'Fira Sans';-inkscape-font-specification:'Fira Sans, Normal';font-variant-ligatures:normal;font-variant-caps:normal;font-variant-numeric:normal;font-variant-east-asian:normal;text-align:start;text-anchor:start;display:inline;fill:#363f4c;fill-opacity:1;stroke:none;stroke-width:0.377953;stroke-linecap:round;stroke-linejoin:round;stroke-dasharray:none;stroke-opacity:1"
     x="-3.359997"
     y="28.37331"
     id="text96-8"><tspan
       sodipodi:role="line"
       style="font-style:normal;font-variant:normal;font-weight:bold;font-stretch:normal;font-size:37.3333px;line-height:1.15;font-family:Sans;-inkscape-font-specification:'Sans, Normal';font-variant-ligatures:normal;font-variant-caps:normal;font-variant-numeric:normal;font-variant-east-asian:normal;fill:#363f4c;fill-opacity:1;stroke:none;stroke-width:0.377953"
       x="-3.359997"
       y="28.37331"
       id="tspan43">Link to the pre-print</tspan></text><path
     style="fill:none;fill-rule:evenodd;stroke:#363f4c;stroke-width:4;stroke-linecap:butt;stroke-linejoin:miter;stroke-dasharray:none;stroke-opacity:1;marker-end:url(#Triangle)"
     d="M 151.48726,47.482592 C 179.85429,225.4005 268.92098,242.89837 416.30601,245.77683"
     id="path11"
     sodipodi:nodetypes="cc" /></svg>
